<svg xmlns="http://www.w3.org/2000/svg" viewBox="0 0 192 192">
  <defs>
    <radialGradient id="bg" cx="34%" cy="28%" r="72%">
      <stop offset="0%" stop-color="#5DD5FF"/>
      <stop offset="55%" stop-color="#2D79D7"/>
      <stop offset="100%" stop-color="#233A98"/>
    </radialGradient>
  </defs>
  <rect width="192" height="192" rx="42" fill="#0F172A"/>
  <circle cx="96" cy="96" r="78" fill="url(#bg)"/>
  <path d="M24 112c20 28 52 42 89 37 11-2 20-6 28-11-17 22-44 36-73 36-29 0-55-13-72-34-5-6-2-15 8-15h20z" fill="#F29100"/>
  <path d="M78 70c4-4 10-6 16-5l42 8c5 1 8 6 8 11v31c0 7-7 12-13 10l-44-13c-5-2-9-7-9-12V70z" fill="#9CA3AF" opacity=".98"/>
  <path d="M97 79l32 6v18l-32-10V79z" fill="#D1D5DB"/>
  <path d="M83 99l40 12-10 12-40-12z" fill="#F29100"/>
</svg>
